<mxfile host="app.diagrams.net" agent="Mozilla/5.0 (Windows NT 10.0; Win64; x64) AppleWebKit/537.36 (KHTML, like Gecko) Chrome/138.0.0.0 Safari/537.36 Edg/138.0.0.0" version="27.2.0">
  <diagram name="Page-1" id="5Tjdu4dXu1ty_uL3PqQw">
    <mxGraphModel dx="2938" dy="1116" grid="1" gridSize="10" guides="1" tooltips="1" connect="1" arrows="1" fold="1" page="1" pageScale="1" pageWidth="1169" pageHeight="827" math="0" shadow="0">
      <root>
        <mxCell id="0" />
        <mxCell id="1" parent="0" />
        <mxCell id="_aAZYnoRH1j6Abzu226s-1" value="Table_region" style="shape=table;startSize=25;container=1;collapsible=0;childLayout=tableLayout;fixedRows=1;rowLines=1;fontStyle=1;align=center;resizeLast=1;" parent="1" vertex="1">
          <mxGeometry x="1508" y="199" width="246" height="129" as="geometry" />
        </mxCell>
        <mxCell id="_aAZYnoRH1j6Abzu226s-2" style="shape=tableRow;horizontal=0;startSize=0;swimlaneHead=0;swimlaneBody=0;fillColor=none;collapsible=0;dropTarget=0;points=[[0,0.5],[1,0.5]];portConstraint=eastwest;top=0;left=0;right=0;bottom=0;" parent="_aAZYnoRH1j6Abzu226s-1" vertex="1">
          <mxGeometry y="25" width="246" height="52" as="geometry" />
        </mxCell>
        <mxCell id="_aAZYnoRH1j6Abzu226s-3" value="INTEGER" style="shape=partialRectangle;connectable=0;fillColor=none;top=0;left=0;bottom=0;right=0;align=left;spacingLeft=2;overflow=hidden;fontSize=11;" parent="_aAZYnoRH1j6Abzu226s-2" vertex="1">
          <mxGeometry width="70" height="52" as="geometry">
            <mxRectangle width="70" height="52" as="alternateBounds" />
          </mxGeometry>
        </mxCell>
        <mxCell id="_aAZYnoRH1j6Abzu226s-4" value="code_region" style="shape=partialRectangle;connectable=0;fillColor=none;top=0;left=0;bottom=0;right=0;align=left;spacingLeft=2;overflow=hidden;fontSize=11;" parent="_aAZYnoRH1j6Abzu226s-2" vertex="1">
          <mxGeometry x="70" width="140" height="52" as="geometry">
            <mxRectangle width="140" height="52" as="alternateBounds" />
          </mxGeometry>
        </mxCell>
        <mxCell id="_aAZYnoRH1j6Abzu226s-5" value="PK" style="shape=partialRectangle;connectable=0;fillColor=none;top=0;left=0;bottom=0;right=0;align=left;spacingLeft=2;overflow=hidden;fontSize=11;" parent="_aAZYnoRH1j6Abzu226s-2" vertex="1">
          <mxGeometry x="210" width="36" height="52" as="geometry">
            <mxRectangle width="36" height="52" as="alternateBounds" />
          </mxGeometry>
        </mxCell>
        <mxCell id="_aAZYnoRH1j6Abzu226s-6" style="shape=tableRow;horizontal=0;startSize=0;swimlaneHead=0;swimlaneBody=0;fillColor=none;collapsible=0;dropTarget=0;points=[[0,0.5],[1,0.5]];portConstraint=eastwest;top=0;left=0;right=0;bottom=0;" parent="_aAZYnoRH1j6Abzu226s-1" vertex="1">
          <mxGeometry y="77" width="246" height="52" as="geometry" />
        </mxCell>
        <mxCell id="_aAZYnoRH1j6Abzu226s-7" value="VARCHAR" style="shape=partialRectangle;connectable=0;fillColor=none;top=0;left=0;bottom=0;right=0;align=left;spacingLeft=2;overflow=hidden;fontSize=11;" parent="_aAZYnoRH1j6Abzu226s-6" vertex="1">
          <mxGeometry width="70" height="52" as="geometry">
            <mxRectangle width="70" height="52" as="alternateBounds" />
          </mxGeometry>
        </mxCell>
        <mxCell id="_aAZYnoRH1j6Abzu226s-8" value="nom_regionÂ " style="shape=partialRectangle;connectable=0;fillColor=none;top=0;left=0;bottom=0;right=0;align=left;spacingLeft=2;overflow=hidden;fontSize=11;" parent="_aAZYnoRH1j6Abzu226s-6" vertex="1">
          <mxGeometry x="70" width="140" height="52" as="geometry">
            <mxRectangle width="140" height="52" as="alternateBounds" />
          </mxGeometry>
        </mxCell>
        <mxCell id="_aAZYnoRH1j6Abzu226s-9" value="" style="shape=partialRectangle;connectable=0;fillColor=none;top=0;left=0;bottom=0;right=0;align=left;spacingLeft=2;overflow=hidden;fontSize=11;" parent="_aAZYnoRH1j6Abzu226s-6" vertex="1">
          <mxGeometry x="210" width="36" height="52" as="geometry">
            <mxRectangle width="36" height="52" as="alternateBounds" />
          </mxGeometry>
        </mxCell>
        <mxCell id="_aAZYnoRH1j6Abzu226s-10" value="Table_departement" style="shape=table;startSize=25;container=1;collapsible=0;childLayout=tableLayout;fixedRows=1;rowLines=1;fontStyle=1;align=center;resizeLast=1;" parent="1" vertex="1">
          <mxGeometry x="1120" y="328" width="294" height="172" as="geometry" />
        </mxCell>
        <mxCell id="_aAZYnoRH1j6Abzu226s-11" style="shape=tableRow;horizontal=0;startSize=0;swimlaneHead=0;swimlaneBody=0;fillColor=none;collapsible=0;dropTarget=0;points=[[0,0.5],[1,0.5]];portConstraint=eastwest;top=0;left=0;right=0;bottom=0;" parent="_aAZYnoRH1j6Abzu226s-10" vertex="1">
          <mxGeometry y="25" width="294" height="49" as="geometry" />
        </mxCell>
        <mxCell id="_aAZYnoRH1j6Abzu226s-12" value="VARCHAR" style="shape=partialRectangle;connectable=0;fillColor=none;top=0;left=0;bottom=0;right=0;align=left;spacingLeft=2;overflow=hidden;fontSize=11;" parent="_aAZYnoRH1j6Abzu226s-11" vertex="1">
          <mxGeometry width="90" height="49" as="geometry">
            <mxRectangle width="90" height="49" as="alternateBounds" />
          </mxGeometry>
        </mxCell>
        <mxCell id="_aAZYnoRH1j6Abzu226s-13" value="code_departement" style="shape=partialRectangle;connectable=0;fillColor=none;top=0;left=0;bottom=0;right=0;align=left;spacingLeft=2;overflow=hidden;fontSize=11;" parent="_aAZYnoRH1j6Abzu226s-11" vertex="1">
          <mxGeometry x="90" width="170" height="49" as="geometry">
            <mxRectangle width="170" height="49" as="alternateBounds" />
          </mxGeometry>
        </mxCell>
        <mxCell id="_aAZYnoRH1j6Abzu226s-14" value="PK" style="shape=partialRectangle;connectable=0;fillColor=none;top=0;left=0;bottom=0;right=0;align=left;spacingLeft=2;overflow=hidden;fontSize=11;" parent="_aAZYnoRH1j6Abzu226s-11" vertex="1">
          <mxGeometry x="260" width="34" height="49" as="geometry">
            <mxRectangle width="34" height="49" as="alternateBounds" />
          </mxGeometry>
        </mxCell>
        <mxCell id="_aAZYnoRH1j6Abzu226s-15" style="shape=tableRow;horizontal=0;startSize=0;swimlaneHead=0;swimlaneBody=0;fillColor=none;collapsible=0;dropTarget=0;points=[[0,0.5],[1,0.5]];portConstraint=eastwest;top=0;left=0;right=0;bottom=0;" parent="_aAZYnoRH1j6Abzu226s-10" vertex="1">
          <mxGeometry y="74" width="294" height="49" as="geometry" />
        </mxCell>
        <mxCell id="_aAZYnoRH1j6Abzu226s-16" value="VARCHAR" style="shape=partialRectangle;connectable=0;fillColor=none;top=0;left=0;bottom=0;right=0;align=left;spacingLeft=2;overflow=hidden;fontSize=11;" parent="_aAZYnoRH1j6Abzu226s-15" vertex="1">
          <mxGeometry width="90" height="49" as="geometry">
            <mxRectangle width="90" height="49" as="alternateBounds" />
          </mxGeometry>
        </mxCell>
        <mxCell id="_aAZYnoRH1j6Abzu226s-17" value="nom_departement" style="shape=partialRectangle;connectable=0;fillColor=none;top=0;left=0;bottom=0;right=0;align=left;spacingLeft=2;overflow=hidden;fontSize=11;" parent="_aAZYnoRH1j6Abzu226s-15" vertex="1">
          <mxGeometry x="90" width="170" height="49" as="geometry">
            <mxRectangle width="170" height="49" as="alternateBounds" />
          </mxGeometry>
        </mxCell>
        <mxCell id="_aAZYnoRH1j6Abzu226s-18" value="" style="shape=partialRectangle;connectable=0;fillColor=none;top=0;left=0;bottom=0;right=0;align=left;spacingLeft=2;overflow=hidden;fontSize=11;" parent="_aAZYnoRH1j6Abzu226s-15" vertex="1">
          <mxGeometry x="260" width="34" height="49" as="geometry">
            <mxRectangle width="34" height="49" as="alternateBounds" />
          </mxGeometry>
        </mxCell>
        <mxCell id="_aAZYnoRH1j6Abzu226s-19" style="shape=tableRow;horizontal=0;startSize=0;swimlaneHead=0;swimlaneBody=0;fillColor=none;collapsible=0;dropTarget=0;points=[[0,0.5],[1,0.5]];portConstraint=eastwest;top=0;left=0;right=0;bottom=0;" parent="_aAZYnoRH1j6Abzu226s-10" vertex="1">
          <mxGeometry y="123" width="294" height="49" as="geometry" />
        </mxCell>
        <mxCell id="_aAZYnoRH1j6Abzu226s-20" value="INTEGER" style="shape=partialRectangle;connectable=0;fillColor=none;top=0;left=0;bottom=0;right=0;align=left;spacingLeft=2;overflow=hidden;fontSize=11;" parent="_aAZYnoRH1j6Abzu226s-19" vertex="1">
          <mxGeometry width="90" height="49" as="geometry">
            <mxRectangle width="90" height="49" as="alternateBounds" />
          </mxGeometry>
        </mxCell>
        <mxCell id="_aAZYnoRH1j6Abzu226s-21" value="code_region" style="shape=partialRectangle;connectable=0;fillColor=none;top=0;left=0;bottom=0;right=0;align=left;spacingLeft=2;overflow=hidden;fontSize=11;" parent="_aAZYnoRH1j6Abzu226s-19" vertex="1">
          <mxGeometry x="90" width="170" height="49" as="geometry">
            <mxRectangle width="170" height="49" as="alternateBounds" />
          </mxGeometry>
        </mxCell>
        <mxCell id="_aAZYnoRH1j6Abzu226s-22" value="FK" style="shape=partialRectangle;connectable=0;fillColor=none;top=0;left=0;bottom=0;right=0;align=left;spacingLeft=2;overflow=hidden;fontSize=11;" parent="_aAZYnoRH1j6Abzu226s-19" vertex="1">
          <mxGeometry x="260" width="34" height="49" as="geometry">
            <mxRectangle width="34" height="49" as="alternateBounds" />
          </mxGeometry>
        </mxCell>
        <mxCell id="_aAZYnoRH1j6Abzu226s-23" value="Table_commune" style="shape=table;startSize=25;container=1;collapsible=0;childLayout=tableLayout;fixedRows=1;rowLines=1;fontStyle=1;align=center;resizeLast=1;" parent="1" vertex="1">
          <mxGeometry x="585" y="340" width="353" height="165" as="geometry" />
        </mxCell>
        <mxCell id="_aAZYnoRH1j6Abzu226s-24" style="shape=tableRow;horizontal=0;startSize=0;swimlaneHead=0;swimlaneBody=0;fillColor=none;collapsible=0;dropTarget=0;points=[[0,0.5],[1,0.5]];portConstraint=eastwest;top=0;left=0;right=0;bottom=0;" parent="_aAZYnoRH1j6Abzu226s-23" vertex="1">
          <mxGeometry y="25" width="353" height="46" as="geometry" />
        </mxCell>
        <mxCell id="_aAZYnoRH1j6Abzu226s-25" value="VARCHAR" style="shape=partialRectangle;connectable=0;fillColor=none;top=0;left=0;bottom=0;right=0;align=left;spacingLeft=2;overflow=hidden;fontSize=11;" parent="_aAZYnoRH1j6Abzu226s-24" vertex="1">
          <mxGeometry width="100" height="46" as="geometry">
            <mxRectangle width="100" height="46" as="alternateBounds" />
          </mxGeometry>
        </mxCell>
        <mxCell id="_aAZYnoRH1j6Abzu226s-26" value="code_commune" style="shape=partialRectangle;connectable=0;fillColor=none;top=0;left=0;bottom=0;right=0;align=left;spacingLeft=2;overflow=hidden;fontSize=11;" parent="_aAZYnoRH1j6Abzu226s-24" vertex="1">
          <mxGeometry x="100" width="231" height="46" as="geometry">
            <mxRectangle width="231" height="46" as="alternateBounds" />
          </mxGeometry>
        </mxCell>
        <mxCell id="_aAZYnoRH1j6Abzu226s-27" value="PK" style="shape=partialRectangle;connectable=0;fillColor=none;top=0;left=0;bottom=0;right=0;align=left;spacingLeft=2;overflow=hidden;fontSize=11;" parent="_aAZYnoRH1j6Abzu226s-24" vertex="1">
          <mxGeometry x="331" width="22" height="46" as="geometry">
            <mxRectangle width="22" height="46" as="alternateBounds" />
          </mxGeometry>
        </mxCell>
        <mxCell id="_aAZYnoRH1j6Abzu226s-28" style="shape=tableRow;horizontal=0;startSize=0;swimlaneHead=0;swimlaneBody=0;fillColor=none;collapsible=0;dropTarget=0;points=[[0,0.5],[1,0.5]];portConstraint=eastwest;top=0;left=0;right=0;bottom=0;" parent="_aAZYnoRH1j6Abzu226s-23" vertex="1">
          <mxGeometry y="71" width="353" height="46" as="geometry" />
        </mxCell>
        <mxCell id="_aAZYnoRH1j6Abzu226s-29" value="VARCHAR" style="shape=partialRectangle;connectable=0;fillColor=none;top=0;left=0;bottom=0;right=0;align=left;spacingLeft=2;overflow=hidden;fontSize=11;" parent="_aAZYnoRH1j6Abzu226s-28" vertex="1">
          <mxGeometry width="100" height="46" as="geometry">
            <mxRectangle width="100" height="46" as="alternateBounds" />
          </mxGeometry>
        </mxCell>
        <mxCell id="_aAZYnoRH1j6Abzu226s-30" value="code_departement" style="shape=partialRectangle;connectable=0;fillColor=none;top=0;left=0;bottom=0;right=0;align=left;spacingLeft=2;overflow=hidden;fontSize=11;" parent="_aAZYnoRH1j6Abzu226s-28" vertex="1">
          <mxGeometry x="100" width="231" height="46" as="geometry">
            <mxRectangle width="231" height="46" as="alternateBounds" />
          </mxGeometry>
        </mxCell>
        <mxCell id="_aAZYnoRH1j6Abzu226s-31" value="FK" style="shape=partialRectangle;connectable=0;fillColor=none;top=0;left=0;bottom=0;right=0;align=left;spacingLeft=2;overflow=hidden;fontSize=11;" parent="_aAZYnoRH1j6Abzu226s-28" vertex="1">
          <mxGeometry x="331" width="22" height="46" as="geometry">
            <mxRectangle width="22" height="46" as="alternateBounds" />
          </mxGeometry>
        </mxCell>
        <mxCell id="_aAZYnoRH1j6Abzu226s-32" style="shape=tableRow;horizontal=0;startSize=0;swimlaneHead=0;swimlaneBody=0;fillColor=none;collapsible=0;dropTarget=0;points=[[0,0.5],[1,0.5]];portConstraint=eastwest;top=0;left=0;right=0;bottom=0;" parent="_aAZYnoRH1j6Abzu226s-23" vertex="1">
          <mxGeometry y="117" width="353" height="46" as="geometry" />
        </mxCell>
        <mxCell id="_aAZYnoRH1j6Abzu226s-33" value="VARCHAR" style="shape=partialRectangle;connectable=0;fillColor=none;top=0;left=0;bottom=0;right=0;align=left;spacingLeft=2;overflow=hidden;fontSize=11;" parent="_aAZYnoRH1j6Abzu226s-32" vertex="1">
          <mxGeometry width="100" height="46" as="geometry">
            <mxRectangle width="100" height="46" as="alternateBounds" />
          </mxGeometry>
        </mxCell>
        <mxCell id="_aAZYnoRH1j6Abzu226s-34" value="nom_commune" style="shape=partialRectangle;connectable=0;fillColor=none;top=0;left=0;bottom=0;right=0;align=left;spacingLeft=2;overflow=hidden;fontSize=11;" parent="_aAZYnoRH1j6Abzu226s-32" vertex="1">
          <mxGeometry x="100" width="231" height="46" as="geometry">
            <mxRectangle width="231" height="46" as="alternateBounds" />
          </mxGeometry>
        </mxCell>
        <mxCell id="_aAZYnoRH1j6Abzu226s-35" value="" style="shape=partialRectangle;connectable=0;fillColor=none;top=0;left=0;bottom=0;right=0;align=left;spacingLeft=2;overflow=hidden;fontSize=11;" parent="_aAZYnoRH1j6Abzu226s-32" vertex="1">
          <mxGeometry x="331" width="22" height="46" as="geometry">
            <mxRectangle width="22" height="46" as="alternateBounds" />
          </mxGeometry>
        </mxCell>
        <mxCell id="_aAZYnoRH1j6Abzu226s-44" value="Table_bien" style="shape=table;startSize=25;container=1;collapsible=0;childLayout=tableLayout;fixedRows=1;rowLines=1;fontStyle=1;align=center;resizeLast=1;" parent="1" vertex="1">
          <mxGeometry x="60" y="90" width="353" height="430" as="geometry" />
        </mxCell>
        <mxCell id="_aAZYnoRH1j6Abzu226s-45" style="shape=tableRow;horizontal=0;startSize=0;swimlaneHead=0;swimlaneBody=0;fillColor=none;collapsible=0;dropTarget=0;points=[[0,0.5],[1,0.5]];portConstraint=eastwest;top=0;left=0;right=0;bottom=0;" parent="_aAZYnoRH1j6Abzu226s-44" vertex="1">
          <mxGeometry y="25" width="353" height="45" as="geometry" />
        </mxCell>
        <mxCell id="_aAZYnoRH1j6Abzu226s-46" value="SERIAL" style="shape=partialRectangle;connectable=0;fillColor=none;top=0;left=0;bottom=0;right=0;align=left;spacingLeft=2;overflow=hidden;fontSize=11;" parent="_aAZYnoRH1j6Abzu226s-45" vertex="1">
          <mxGeometry width="72.99999999999989" height="45" as="geometry">
            <mxRectangle width="72.99999999999989" height="45" as="alternateBounds" />
          </mxGeometry>
        </mxCell>
        <mxCell id="_aAZYnoRH1j6Abzu226s-47" value="id_bien" style="shape=partialRectangle;connectable=0;fillColor=none;top=0;left=0;bottom=0;right=0;align=left;spacingLeft=2;overflow=hidden;fontSize=11;" parent="_aAZYnoRH1j6Abzu226s-45" vertex="1">
          <mxGeometry x="72.99999999999989" width="250" height="45" as="geometry">
            <mxRectangle width="250" height="45" as="alternateBounds" />
          </mxGeometry>
        </mxCell>
        <mxCell id="_aAZYnoRH1j6Abzu226s-48" value="PK" style="shape=partialRectangle;connectable=0;fillColor=none;top=0;left=0;bottom=0;right=0;align=left;spacingLeft=2;overflow=hidden;fontSize=11;" parent="_aAZYnoRH1j6Abzu226s-45" vertex="1">
          <mxGeometry x="322.9999999999999" width="30.000000000000114" height="45" as="geometry">
            <mxRectangle width="30.000000000000114" height="45" as="alternateBounds" />
          </mxGeometry>
        </mxCell>
        <mxCell id="_aAZYnoRH1j6Abzu226s-49" style="shape=tableRow;horizontal=0;startSize=0;swimlaneHead=0;swimlaneBody=0;fillColor=none;collapsible=0;dropTarget=0;points=[[0,0.5],[1,0.5]];portConstraint=eastwest;top=0;left=0;right=0;bottom=0;" parent="_aAZYnoRH1j6Abzu226s-44" vertex="1">
          <mxGeometry y="70" width="353" height="45" as="geometry" />
        </mxCell>
        <mxCell id="_aAZYnoRH1j6Abzu226s-50" value="VARCHAR" style="shape=partialRectangle;connectable=0;fillColor=none;top=0;left=0;bottom=0;right=0;align=left;spacingLeft=2;overflow=hidden;fontSize=11;" parent="_aAZYnoRH1j6Abzu226s-49" vertex="1">
          <mxGeometry width="72.99999999999989" height="45" as="geometry">
            <mxRectangle width="72.99999999999989" height="45" as="alternateBounds" />
          </mxGeometry>
        </mxCell>
        <mxCell id="_aAZYnoRH1j6Abzu226s-51" value="code_commune" style="shape=partialRectangle;connectable=0;fillColor=none;top=0;left=0;bottom=0;right=0;align=left;spacingLeft=2;overflow=hidden;fontSize=11;" parent="_aAZYnoRH1j6Abzu226s-49" vertex="1">
          <mxGeometry x="72.99999999999989" width="250" height="45" as="geometry">
            <mxRectangle width="250" height="45" as="alternateBounds" />
          </mxGeometry>
        </mxCell>
        <mxCell id="_aAZYnoRH1j6Abzu226s-52" value="FK" style="shape=partialRectangle;connectable=0;fillColor=none;top=0;left=0;bottom=0;right=0;align=left;spacingLeft=2;overflow=hidden;fontSize=11;" parent="_aAZYnoRH1j6Abzu226s-49" vertex="1">
          <mxGeometry x="322.9999999999999" width="30.000000000000114" height="45" as="geometry">
            <mxRectangle width="30.000000000000114" height="45" as="alternateBounds" />
          </mxGeometry>
        </mxCell>
        <mxCell id="_aAZYnoRH1j6Abzu226s-53" style="shape=tableRow;horizontal=0;startSize=0;swimlaneHead=0;swimlaneBody=0;fillColor=none;collapsible=0;dropTarget=0;points=[[0,0.5],[1,0.5]];portConstraint=eastwest;top=0;left=0;right=0;bottom=0;" parent="_aAZYnoRH1j6Abzu226s-44" vertex="1">
          <mxGeometry y="115" width="353" height="45" as="geometry" />
        </mxCell>
        <mxCell id="_aAZYnoRH1j6Abzu226s-54" value="INTEGER" style="shape=partialRectangle;connectable=0;fillColor=none;top=0;left=0;bottom=0;right=0;align=left;spacingLeft=2;overflow=hidden;fontSize=11;" parent="_aAZYnoRH1j6Abzu226s-53" vertex="1">
          <mxGeometry width="72.99999999999989" height="45" as="geometry">
            <mxRectangle width="72.99999999999989" height="45" as="alternateBounds" />
          </mxGeometry>
        </mxCell>
        <mxCell id="_aAZYnoRH1j6Abzu226s-55" value="no_voie" style="shape=partialRectangle;connectable=0;fillColor=none;top=0;left=0;bottom=0;right=0;align=left;spacingLeft=2;overflow=hidden;fontSize=11;" parent="_aAZYnoRH1j6Abzu226s-53" vertex="1">
          <mxGeometry x="72.99999999999989" width="250" height="45" as="geometry">
            <mxRectangle width="250" height="45" as="alternateBounds" />
          </mxGeometry>
        </mxCell>
        <mxCell id="_aAZYnoRH1j6Abzu226s-56" value="" style="shape=partialRectangle;connectable=0;fillColor=none;top=0;left=0;bottom=0;right=0;align=left;spacingLeft=2;overflow=hidden;fontSize=11;" parent="_aAZYnoRH1j6Abzu226s-53" vertex="1">
          <mxGeometry x="322.9999999999999" width="30.000000000000114" height="45" as="geometry">
            <mxRectangle width="30.000000000000114" height="45" as="alternateBounds" />
          </mxGeometry>
        </mxCell>
        <mxCell id="_aAZYnoRH1j6Abzu226s-57" style="shape=tableRow;horizontal=0;startSize=0;swimlaneHead=0;swimlaneBody=0;fillColor=none;collapsible=0;dropTarget=0;points=[[0,0.5],[1,0.5]];portConstraint=eastwest;top=0;left=0;right=0;bottom=0;" parent="_aAZYnoRH1j6Abzu226s-44" vertex="1">
          <mxGeometry y="160" width="353" height="45" as="geometry" />
        </mxCell>
        <mxCell id="_aAZYnoRH1j6Abzu226s-58" value="VARCHAR(1)" style="shape=partialRectangle;connectable=0;fillColor=none;top=0;left=0;bottom=0;right=0;align=left;spacingLeft=2;overflow=hidden;fontSize=11;" parent="_aAZYnoRH1j6Abzu226s-57" vertex="1">
          <mxGeometry width="72.99999999999989" height="45" as="geometry">
            <mxRectangle width="72.99999999999989" height="45" as="alternateBounds" />
          </mxGeometry>
        </mxCell>
        <mxCell id="_aAZYnoRH1j6Abzu226s-59" value="btq" style="shape=partialRectangle;connectable=0;fillColor=none;top=0;left=0;bottom=0;right=0;align=left;spacingLeft=2;overflow=hidden;fontSize=11;" parent="_aAZYnoRH1j6Abzu226s-57" vertex="1">
          <mxGeometry x="72.99999999999989" width="250" height="45" as="geometry">
            <mxRectangle width="250" height="45" as="alternateBounds" />
          </mxGeometry>
        </mxCell>
        <mxCell id="_aAZYnoRH1j6Abzu226s-60" value="" style="shape=partialRectangle;connectable=0;fillColor=none;top=0;left=0;bottom=0;right=0;align=left;spacingLeft=2;overflow=hidden;fontSize=11;" parent="_aAZYnoRH1j6Abzu226s-57" vertex="1">
          <mxGeometry x="322.9999999999999" width="30.000000000000114" height="45" as="geometry">
            <mxRectangle width="30.000000000000114" height="45" as="alternateBounds" />
          </mxGeometry>
        </mxCell>
        <mxCell id="_aAZYnoRH1j6Abzu226s-61" style="shape=tableRow;horizontal=0;startSize=0;swimlaneHead=0;swimlaneBody=0;fillColor=none;collapsible=0;dropTarget=0;points=[[0,0.5],[1,0.5]];portConstraint=eastwest;top=0;left=0;right=0;bottom=0;" parent="_aAZYnoRH1j6Abzu226s-44" vertex="1">
          <mxGeometry y="205" width="353" height="45" as="geometry" />
        </mxCell>
        <mxCell id="_aAZYnoRH1j6Abzu226s-62" value="VARCHAR" style="shape=partialRectangle;connectable=0;fillColor=none;top=0;left=0;bottom=0;right=0;align=left;spacingLeft=2;overflow=hidden;fontSize=11;" parent="_aAZYnoRH1j6Abzu226s-61" vertex="1">
          <mxGeometry width="72.99999999999989" height="45" as="geometry">
            <mxRectangle width="72.99999999999989" height="45" as="alternateBounds" />
          </mxGeometry>
        </mxCell>
        <mxCell id="_aAZYnoRH1j6Abzu226s-63" value="type_voie" style="shape=partialRectangle;connectable=0;fillColor=none;top=0;left=0;bottom=0;right=0;align=left;spacingLeft=2;overflow=hidden;fontSize=11;" parent="_aAZYnoRH1j6Abzu226s-61" vertex="1">
          <mxGeometry x="72.99999999999989" width="250" height="45" as="geometry">
            <mxRectangle width="250" height="45" as="alternateBounds" />
          </mxGeometry>
        </mxCell>
        <mxCell id="_aAZYnoRH1j6Abzu226s-64" value="" style="shape=partialRectangle;connectable=0;fillColor=none;top=0;left=0;bottom=0;right=0;align=left;spacingLeft=2;overflow=hidden;fontSize=11;" parent="_aAZYnoRH1j6Abzu226s-61" vertex="1">
          <mxGeometry x="322.9999999999999" width="30.000000000000114" height="45" as="geometry">
            <mxRectangle width="30.000000000000114" height="45" as="alternateBounds" />
          </mxGeometry>
        </mxCell>
        <mxCell id="_aAZYnoRH1j6Abzu226s-65" style="shape=tableRow;horizontal=0;startSize=0;swimlaneHead=0;swimlaneBody=0;fillColor=none;collapsible=0;dropTarget=0;points=[[0,0.5],[1,0.5]];portConstraint=eastwest;top=0;left=0;right=0;bottom=0;" parent="_aAZYnoRH1j6Abzu226s-44" vertex="1">
          <mxGeometry y="250" width="353" height="45" as="geometry" />
        </mxCell>
        <mxCell id="_aAZYnoRH1j6Abzu226s-66" value="VARCHAR" style="shape=partialRectangle;connectable=0;fillColor=none;top=0;left=0;bottom=0;right=0;align=left;spacingLeft=2;overflow=hidden;fontSize=11;" parent="_aAZYnoRH1j6Abzu226s-65" vertex="1">
          <mxGeometry width="72.99999999999989" height="45" as="geometry">
            <mxRectangle width="72.99999999999989" height="45" as="alternateBounds" />
          </mxGeometry>
        </mxCell>
        <mxCell id="_aAZYnoRH1j6Abzu226s-67" value="voie" style="shape=partialRectangle;connectable=0;fillColor=none;top=0;left=0;bottom=0;right=0;align=left;spacingLeft=2;overflow=hidden;fontSize=11;" parent="_aAZYnoRH1j6Abzu226s-65" vertex="1">
          <mxGeometry x="72.99999999999989" width="250" height="45" as="geometry">
            <mxRectangle width="250" height="45" as="alternateBounds" />
          </mxGeometry>
        </mxCell>
        <mxCell id="_aAZYnoRH1j6Abzu226s-68" value="" style="shape=partialRectangle;connectable=0;fillColor=none;top=0;left=0;bottom=0;right=0;align=left;spacingLeft=2;overflow=hidden;fontSize=11;" parent="_aAZYnoRH1j6Abzu226s-65" vertex="1">
          <mxGeometry x="322.9999999999999" width="30.000000000000114" height="45" as="geometry">
            <mxRectangle width="30.000000000000114" height="45" as="alternateBounds" />
          </mxGeometry>
        </mxCell>
        <mxCell id="_aAZYnoRH1j6Abzu226s-69" style="shape=tableRow;horizontal=0;startSize=0;swimlaneHead=0;swimlaneBody=0;fillColor=none;collapsible=0;dropTarget=0;points=[[0,0.5],[1,0.5]];portConstraint=eastwest;top=0;left=0;right=0;bottom=0;" parent="_aAZYnoRH1j6Abzu226s-44" vertex="1">
          <mxGeometry y="295" width="353" height="45" as="geometry" />
        </mxCell>
        <mxCell id="_aAZYnoRH1j6Abzu226s-70" value="INTEGER" style="shape=partialRectangle;connectable=0;fillColor=none;top=0;left=0;bottom=0;right=0;align=left;spacingLeft=2;overflow=hidden;fontSize=11;" parent="_aAZYnoRH1j6Abzu226s-69" vertex="1">
          <mxGeometry width="72.99999999999989" height="45" as="geometry">
            <mxRectangle width="72.99999999999989" height="45" as="alternateBounds" />
          </mxGeometry>
        </mxCell>
        <mxCell id="_aAZYnoRH1j6Abzu226s-71" value="total_piece" style="shape=partialRectangle;connectable=0;fillColor=none;top=0;left=0;bottom=0;right=0;align=left;spacingLeft=2;overflow=hidden;fontSize=11;" parent="_aAZYnoRH1j6Abzu226s-69" vertex="1">
          <mxGeometry x="72.99999999999989" width="250" height="45" as="geometry">
            <mxRectangle width="250" height="45" as="alternateBounds" />
          </mxGeometry>
        </mxCell>
        <mxCell id="_aAZYnoRH1j6Abzu226s-72" value="" style="shape=partialRectangle;connectable=0;fillColor=none;top=0;left=0;bottom=0;right=0;align=left;spacingLeft=2;overflow=hidden;fontSize=11;" parent="_aAZYnoRH1j6Abzu226s-69" vertex="1">
          <mxGeometry x="322.9999999999999" width="30.000000000000114" height="45" as="geometry">
            <mxRectangle width="30.000000000000114" height="45" as="alternateBounds" />
          </mxGeometry>
        </mxCell>
        <mxCell id="_aAZYnoRH1j6Abzu226s-77" style="shape=tableRow;horizontal=0;startSize=0;swimlaneHead=0;swimlaneBody=0;fillColor=none;collapsible=0;dropTarget=0;points=[[0,0.5],[1,0.5]];portConstraint=eastwest;top=0;left=0;right=0;bottom=0;" parent="_aAZYnoRH1j6Abzu226s-44" vertex="1">
          <mxGeometry y="340" width="353" height="45" as="geometry" />
        </mxCell>
        <mxCell id="_aAZYnoRH1j6Abzu226s-78" value="INTEGER" style="shape=partialRectangle;connectable=0;fillColor=none;top=0;left=0;bottom=0;right=0;align=left;spacingLeft=2;overflow=hidden;fontSize=11;" parent="_aAZYnoRH1j6Abzu226s-77" vertex="1">
          <mxGeometry width="72.99999999999989" height="45" as="geometry">
            <mxRectangle width="72.99999999999989" height="45" as="alternateBounds" />
          </mxGeometry>
        </mxCell>
        <mxCell id="_aAZYnoRH1j6Abzu226s-79" value="surface_carrez_bien" style="shape=partialRectangle;connectable=0;fillColor=none;top=0;left=0;bottom=0;right=0;align=left;spacingLeft=2;overflow=hidden;fontSize=11;" parent="_aAZYnoRH1j6Abzu226s-77" vertex="1">
          <mxGeometry x="72.99999999999989" width="250" height="45" as="geometry">
            <mxRectangle width="250" height="45" as="alternateBounds" />
          </mxGeometry>
        </mxCell>
        <mxCell id="_aAZYnoRH1j6Abzu226s-80" value="" style="shape=partialRectangle;connectable=0;fillColor=none;top=0;left=0;bottom=0;right=0;align=left;spacingLeft=2;overflow=hidden;fontSize=11;" parent="_aAZYnoRH1j6Abzu226s-77" vertex="1">
          <mxGeometry x="322.9999999999999" width="30.000000000000114" height="45" as="geometry">
            <mxRectangle width="30.000000000000114" height="45" as="alternateBounds" />
          </mxGeometry>
        </mxCell>
        <mxCell id="_aAZYnoRH1j6Abzu226s-81" style="shape=tableRow;horizontal=0;startSize=0;swimlaneHead=0;swimlaneBody=0;fillColor=none;collapsible=0;dropTarget=0;points=[[0,0.5],[1,0.5]];portConstraint=eastwest;top=0;left=0;right=0;bottom=0;" parent="_aAZYnoRH1j6Abzu226s-44" vertex="1">
          <mxGeometry y="385" width="353" height="45" as="geometry" />
        </mxCell>
        <mxCell id="_aAZYnoRH1j6Abzu226s-82" value="VARCHAR" style="shape=partialRectangle;connectable=0;fillColor=none;top=0;left=0;bottom=0;right=0;align=left;spacingLeft=2;overflow=hidden;fontSize=11;" parent="_aAZYnoRH1j6Abzu226s-81" vertex="1">
          <mxGeometry width="72.99999999999989" height="45" as="geometry">
            <mxRectangle width="72.99999999999989" height="45" as="alternateBounds" />
          </mxGeometry>
        </mxCell>
        <mxCell id="_aAZYnoRH1j6Abzu226s-83" value="type_local" style="shape=partialRectangle;connectable=0;fillColor=none;top=0;left=0;bottom=0;right=0;align=left;spacingLeft=2;overflow=hidden;fontSize=11;" parent="_aAZYnoRH1j6Abzu226s-81" vertex="1">
          <mxGeometry x="72.99999999999989" width="250" height="45" as="geometry">
            <mxRectangle width="250" height="45" as="alternateBounds" />
          </mxGeometry>
        </mxCell>
        <mxCell id="_aAZYnoRH1j6Abzu226s-84" value="" style="shape=partialRectangle;connectable=0;fillColor=none;top=0;left=0;bottom=0;right=0;align=left;spacingLeft=2;overflow=hidden;fontSize=11;" parent="_aAZYnoRH1j6Abzu226s-81" vertex="1">
          <mxGeometry x="322.9999999999999" width="30.000000000000114" height="45" as="geometry">
            <mxRectangle width="30.000000000000114" height="45" as="alternateBounds" />
          </mxGeometry>
        </mxCell>
        <mxCell id="_aAZYnoRH1j6Abzu226s-85" value="Table_vente" style="shape=table;startSize=25;container=1;collapsible=0;childLayout=tableLayout;fixedRows=1;rowLines=1;fontStyle=1;align=center;resizeLast=1;" parent="1" vertex="1">
          <mxGeometry x="650" y="55" width="280" height="215" as="geometry" />
        </mxCell>
        <mxCell id="_aAZYnoRH1j6Abzu226s-86" style="shape=tableRow;horizontal=0;startSize=0;swimlaneHead=0;swimlaneBody=0;fillColor=none;collapsible=0;dropTarget=0;points=[[0,0.5],[1,0.5]];portConstraint=eastwest;top=0;left=0;right=0;bottom=0;" parent="_aAZYnoRH1j6Abzu226s-85" vertex="1">
          <mxGeometry y="25" width="280" height="47" as="geometry" />
        </mxCell>
        <mxCell id="_aAZYnoRH1j6Abzu226s-87" value="SERIAL" style="shape=partialRectangle;connectable=0;fillColor=none;top=0;left=0;bottom=0;right=0;align=left;spacingLeft=2;overflow=hidden;fontSize=11;" parent="_aAZYnoRH1j6Abzu226s-86" vertex="1">
          <mxGeometry width="100" height="47" as="geometry">
            <mxRectangle width="100" height="47" as="alternateBounds" />
          </mxGeometry>
        </mxCell>
        <mxCell id="_aAZYnoRH1j6Abzu226s-88" value="id_vente" style="shape=partialRectangle;connectable=0;fillColor=none;top=0;left=0;bottom=0;right=0;align=left;spacingLeft=2;overflow=hidden;fontSize=11;" parent="_aAZYnoRH1j6Abzu226s-86" vertex="1">
          <mxGeometry x="100" width="120" height="47" as="geometry">
            <mxRectangle width="120" height="47" as="alternateBounds" />
          </mxGeometry>
        </mxCell>
        <mxCell id="_aAZYnoRH1j6Abzu226s-89" value="PK" style="shape=partialRectangle;connectable=0;fillColor=none;top=0;left=0;bottom=0;right=0;align=left;spacingLeft=2;overflow=hidden;fontSize=11;" parent="_aAZYnoRH1j6Abzu226s-86" vertex="1">
          <mxGeometry x="220" width="60" height="47" as="geometry">
            <mxRectangle width="60" height="47" as="alternateBounds" />
          </mxGeometry>
        </mxCell>
        <mxCell id="_aAZYnoRH1j6Abzu226s-90" style="shape=tableRow;horizontal=0;startSize=0;swimlaneHead=0;swimlaneBody=0;fillColor=none;collapsible=0;dropTarget=0;points=[[0,0.5],[1,0.5]];portConstraint=eastwest;top=0;left=0;right=0;bottom=0;" parent="_aAZYnoRH1j6Abzu226s-85" vertex="1">
          <mxGeometry y="72" width="280" height="48" as="geometry" />
        </mxCell>
        <mxCell id="_aAZYnoRH1j6Abzu226s-91" value="INTEGER" style="shape=partialRectangle;connectable=0;fillColor=none;top=0;left=0;bottom=0;right=0;align=left;spacingLeft=2;overflow=hidden;fontSize=11;" parent="_aAZYnoRH1j6Abzu226s-90" vertex="1">
          <mxGeometry width="100" height="48" as="geometry">
            <mxRectangle width="100" height="48" as="alternateBounds" />
          </mxGeometry>
        </mxCell>
        <mxCell id="_aAZYnoRH1j6Abzu226s-92" value="id_bien" style="shape=partialRectangle;connectable=0;fillColor=none;top=0;left=0;bottom=0;right=0;align=left;spacingLeft=2;overflow=hidden;fontSize=11;" parent="_aAZYnoRH1j6Abzu226s-90" vertex="1">
          <mxGeometry x="100" width="120" height="48" as="geometry">
            <mxRectangle width="120" height="48" as="alternateBounds" />
          </mxGeometry>
        </mxCell>
        <mxCell id="_aAZYnoRH1j6Abzu226s-93" value="FK" style="shape=partialRectangle;connectable=0;fillColor=none;top=0;left=0;bottom=0;right=0;align=left;spacingLeft=2;overflow=hidden;fontSize=11;" parent="_aAZYnoRH1j6Abzu226s-90" vertex="1">
          <mxGeometry x="220" width="60" height="48" as="geometry">
            <mxRectangle width="60" height="48" as="alternateBounds" />
          </mxGeometry>
        </mxCell>
        <mxCell id="_aAZYnoRH1j6Abzu226s-94" style="shape=tableRow;horizontal=0;startSize=0;swimlaneHead=0;swimlaneBody=0;fillColor=none;collapsible=0;dropTarget=0;points=[[0,0.5],[1,0.5]];portConstraint=eastwest;top=0;left=0;right=0;bottom=0;" parent="_aAZYnoRH1j6Abzu226s-85" vertex="1">
          <mxGeometry y="120" width="280" height="47" as="geometry" />
        </mxCell>
        <mxCell id="_aAZYnoRH1j6Abzu226s-95" value="DATE" style="shape=partialRectangle;connectable=0;fillColor=none;top=0;left=0;bottom=0;right=0;align=left;spacingLeft=2;overflow=hidden;fontSize=11;" parent="_aAZYnoRH1j6Abzu226s-94" vertex="1">
          <mxGeometry width="100" height="47" as="geometry">
            <mxRectangle width="100" height="47" as="alternateBounds" />
          </mxGeometry>
        </mxCell>
        <mxCell id="_aAZYnoRH1j6Abzu226s-96" value="date" style="shape=partialRectangle;connectable=0;fillColor=none;top=0;left=0;bottom=0;right=0;align=left;spacingLeft=2;overflow=hidden;fontSize=11;" parent="_aAZYnoRH1j6Abzu226s-94" vertex="1">
          <mxGeometry x="100" width="120" height="47" as="geometry">
            <mxRectangle width="120" height="47" as="alternateBounds" />
          </mxGeometry>
        </mxCell>
        <mxCell id="_aAZYnoRH1j6Abzu226s-97" value="" style="shape=partialRectangle;connectable=0;fillColor=none;top=0;left=0;bottom=0;right=0;align=left;spacingLeft=2;overflow=hidden;fontSize=11;" parent="_aAZYnoRH1j6Abzu226s-94" vertex="1">
          <mxGeometry x="220" width="60" height="47" as="geometry">
            <mxRectangle width="60" height="47" as="alternateBounds" />
          </mxGeometry>
        </mxCell>
        <mxCell id="_aAZYnoRH1j6Abzu226s-98" style="shape=tableRow;horizontal=0;startSize=0;swimlaneHead=0;swimlaneBody=0;fillColor=none;collapsible=0;dropTarget=0;points=[[0,0.5],[1,0.5]];portConstraint=eastwest;top=0;left=0;right=0;bottom=0;" parent="_aAZYnoRH1j6Abzu226s-85" vertex="1">
          <mxGeometry y="167" width="280" height="47" as="geometry" />
        </mxCell>
        <mxCell id="_aAZYnoRH1j6Abzu226s-99" value="NUMERIC(12,2)" style="shape=partialRectangle;connectable=0;fillColor=none;top=0;left=0;bottom=0;right=0;align=left;spacingLeft=2;overflow=hidden;fontSize=11;" parent="_aAZYnoRH1j6Abzu226s-98" vertex="1">
          <mxGeometry width="100" height="47" as="geometry">
            <mxRectangle width="100" height="47" as="alternateBounds" />
          </mxGeometry>
        </mxCell>
        <mxCell id="_aAZYnoRH1j6Abzu226s-100" value="valeur_vente" style="shape=partialRectangle;connectable=0;fillColor=none;top=0;left=0;bottom=0;right=0;align=left;spacingLeft=2;overflow=hidden;fontSize=11;" parent="_aAZYnoRH1j6Abzu226s-98" vertex="1">
          <mxGeometry x="100" width="120" height="47" as="geometry">
            <mxRectangle width="120" height="47" as="alternateBounds" />
          </mxGeometry>
        </mxCell>
        <mxCell id="_aAZYnoRH1j6Abzu226s-101" value="" style="shape=partialRectangle;connectable=0;fillColor=none;top=0;left=0;bottom=0;right=0;align=left;spacingLeft=2;overflow=hidden;fontSize=11;" parent="_aAZYnoRH1j6Abzu226s-98" vertex="1">
          <mxGeometry x="220" width="60" height="47" as="geometry">
            <mxRectangle width="60" height="47" as="alternateBounds" />
          </mxGeometry>
        </mxCell>
        <mxCell id="_aAZYnoRH1j6Abzu226s-118" value="population" style="shape=table;startSize=30;container=1;collapsible=0;childLayout=tableLayout;fixedRows=1;rowLines=1;fontStyle=1;align=center;resizeLast=1;" parent="1" vertex="1">
          <mxGeometry x="1050" y="20" width="353" height="122" as="geometry" />
        </mxCell>
        <mxCell id="_aAZYnoRH1j6Abzu226s-119" style="shape=tableRow;horizontal=0;startSize=0;swimlaneHead=0;swimlaneBody=0;fillColor=none;collapsible=0;dropTarget=0;points=[[0,0.5],[1,0.5]];portConstraint=eastwest;top=0;left=0;right=0;bottom=0;" parent="_aAZYnoRH1j6Abzu226s-118" vertex="1">
          <mxGeometry y="30" width="353" height="46" as="geometry" />
        </mxCell>
        <mxCell id="_aAZYnoRH1j6Abzu226s-120" value="INTEGER" style="shape=partialRectangle;connectable=0;fillColor=none;top=0;left=0;bottom=0;right=0;align=left;spacingLeft=2;overflow=hidden;fontSize=11;" parent="_aAZYnoRH1j6Abzu226s-119" vertex="1">
          <mxGeometry width="70" height="46" as="geometry">
            <mxRectangle width="70" height="46" as="alternateBounds" />
          </mxGeometry>
        </mxCell>
        <mxCell id="_aAZYnoRH1j6Abzu226s-121" value="population_totale" style="shape=partialRectangle;connectable=0;fillColor=none;top=0;left=0;bottom=0;right=0;align=left;spacingLeft=2;overflow=hidden;fontSize=11;" parent="_aAZYnoRH1j6Abzu226s-119" vertex="1">
          <mxGeometry x="70" width="240" height="46" as="geometry">
            <mxRectangle width="240" height="46" as="alternateBounds" />
          </mxGeometry>
        </mxCell>
        <mxCell id="_aAZYnoRH1j6Abzu226s-122" value="" style="shape=partialRectangle;connectable=0;fillColor=none;top=0;left=0;bottom=0;right=0;align=left;spacingLeft=2;overflow=hidden;fontSize=11;" parent="_aAZYnoRH1j6Abzu226s-119" vertex="1">
          <mxGeometry x="310" width="43" height="46" as="geometry">
            <mxRectangle width="43" height="46" as="alternateBounds" />
          </mxGeometry>
        </mxCell>
        <mxCell id="_aAZYnoRH1j6Abzu226s-123" style="shape=tableRow;horizontal=0;startSize=0;swimlaneHead=0;swimlaneBody=0;fillColor=none;collapsible=0;dropTarget=0;points=[[0,0.5],[1,0.5]];portConstraint=eastwest;top=0;left=0;right=0;bottom=0;" parent="_aAZYnoRH1j6Abzu226s-118" vertex="1">
          <mxGeometry y="76" width="353" height="46" as="geometry" />
        </mxCell>
        <mxCell id="_aAZYnoRH1j6Abzu226s-124" value="VARCHAR" style="shape=partialRectangle;connectable=0;fillColor=none;top=0;left=0;bottom=0;right=0;align=left;spacingLeft=2;overflow=hidden;fontSize=11;" parent="_aAZYnoRH1j6Abzu226s-123" vertex="1">
          <mxGeometry width="70" height="46" as="geometry">
            <mxRectangle width="70" height="46" as="alternateBounds" />
          </mxGeometry>
        </mxCell>
        <mxCell id="_aAZYnoRH1j6Abzu226s-125" value="code_commune" style="shape=partialRectangle;connectable=0;fillColor=none;top=0;left=0;bottom=0;right=0;align=left;spacingLeft=2;overflow=hidden;fontSize=11;" parent="_aAZYnoRH1j6Abzu226s-123" vertex="1">
          <mxGeometry x="70" width="240" height="46" as="geometry">
            <mxRectangle width="240" height="46" as="alternateBounds" />
          </mxGeometry>
        </mxCell>
        <mxCell id="_aAZYnoRH1j6Abzu226s-126" value="FK" style="shape=partialRectangle;connectable=0;fillColor=none;top=0;left=0;bottom=0;right=0;align=left;spacingLeft=2;overflow=hidden;fontSize=11;" parent="_aAZYnoRH1j6Abzu226s-123" vertex="1">
          <mxGeometry x="310" width="43" height="46" as="geometry">
            <mxRectangle width="43" height="46" as="alternateBounds" />
          </mxGeometry>
        </mxCell>
        <mxCell id="5B8QcY3OEXfL6ncTWb6D-4" value="appartient Ã " style="endArrow=open;html=1;endSize=12;startArrow=diamondThin;startSize=14;startFill=0;edgeStyle=orthogonalEdgeStyle;rounded=0;exitX=1;exitY=0.5;exitDx=0;exitDy=0;entryX=0.002;entryY=0.413;entryDx=0;entryDy=0;entryPerimeter=0;" edge="1" parent="1" source="_aAZYnoRH1j6Abzu226s-49" target="_aAZYnoRH1j6Abzu226s-24">
          <mxGeometry relative="1" as="geometry">
            <mxPoint x="640" y="280" as="sourcePoint" />
            <mxPoint x="800" y="280" as="targetPoint" />
          </mxGeometry>
        </mxCell>
        <mxCell id="5B8QcY3OEXfL6ncTWb6D-5" value="1..n" style="edgeLabel;resizable=0;html=1;align=left;verticalAlign=top;" connectable="0" vertex="1" parent="5B8QcY3OEXfL6ncTWb6D-4">
          <mxGeometry x="-1" relative="1" as="geometry" />
        </mxCell>
        <mxCell id="5B8QcY3OEXfL6ncTWb6D-6" value="1" style="edgeLabel;resizable=0;html=1;align=right;verticalAlign=top;" connectable="0" vertex="1" parent="5B8QcY3OEXfL6ncTWb6D-4">
          <mxGeometry x="1" relative="1" as="geometry" />
        </mxCell>
        <mxCell id="5B8QcY3OEXfL6ncTWb6D-7" value="dÃ©pend de" style="endArrow=open;html=1;endSize=12;startArrow=diamondThin;startSize=14;startFill=0;edgeStyle=orthogonalEdgeStyle;rounded=0;exitX=0;exitY=0.5;exitDx=0;exitDy=0;entryX=1;entryY=0.5;entryDx=0;entryDy=0;" edge="1" parent="1" source="_aAZYnoRH1j6Abzu226s-90" target="_aAZYnoRH1j6Abzu226s-45">
          <mxGeometry x="-0.0008" relative="1" as="geometry">
            <mxPoint x="590" y="460" as="sourcePoint" />
            <mxPoint x="550" y="150" as="targetPoint" />
            <Array as="points">
              <mxPoint x="610" y="151" />
              <mxPoint x="610" y="110" />
              <mxPoint x="490" y="110" />
              <mxPoint x="490" y="137" />
            </Array>
            <mxPoint as="offset" />
          </mxGeometry>
        </mxCell>
        <mxCell id="5B8QcY3OEXfL6ncTWb6D-8" value="1..n" style="edgeLabel;resizable=0;html=1;align=left;verticalAlign=top;" connectable="0" vertex="1" parent="5B8QcY3OEXfL6ncTWb6D-7">
          <mxGeometry x="-1" relative="1" as="geometry">
            <mxPoint x="-30" as="offset" />
          </mxGeometry>
        </mxCell>
        <mxCell id="5B8QcY3OEXfL6ncTWb6D-9" value="1" style="edgeLabel;resizable=0;html=1;align=right;verticalAlign=top;" connectable="0" vertex="1" parent="5B8QcY3OEXfL6ncTWb6D-7">
          <mxGeometry x="1" relative="1" as="geometry">
            <mxPoint x="17" as="offset" />
          </mxGeometry>
        </mxCell>
        <mxCell id="5B8QcY3OEXfL6ncTWb6D-10" value="appartient Ã " style="endArrow=open;html=1;endSize=12;startArrow=diamondThin;startSize=14;startFill=0;edgeStyle=orthogonalEdgeStyle;rounded=0;exitX=0;exitY=0.5;exitDx=0;exitDy=0;" edge="1" parent="1" source="_aAZYnoRH1j6Abzu226s-123">
          <mxGeometry relative="1" as="geometry">
            <mxPoint x="1080" y="200" as="sourcePoint" />
            <mxPoint x="940" y="390" as="targetPoint" />
            <Array as="points">
              <mxPoint x="1000" y="119" />
              <mxPoint x="1000" y="390" />
            </Array>
          </mxGeometry>
        </mxCell>
        <mxCell id="5B8QcY3OEXfL6ncTWb6D-11" value="1..n" style="edgeLabel;resizable=0;html=1;align=left;verticalAlign=top;" connectable="0" vertex="1" parent="5B8QcY3OEXfL6ncTWb6D-10">
          <mxGeometry x="-1" relative="1" as="geometry">
            <mxPoint x="-30" as="offset" />
          </mxGeometry>
        </mxCell>
        <mxCell id="5B8QcY3OEXfL6ncTWb6D-12" value="1" style="edgeLabel;resizable=0;html=1;align=right;verticalAlign=top;" connectable="0" vertex="1" parent="5B8QcY3OEXfL6ncTWb6D-10">
          <mxGeometry x="1" relative="1" as="geometry">
            <mxPoint x="20" as="offset" />
          </mxGeometry>
        </mxCell>
        <mxCell id="5B8QcY3OEXfL6ncTWb6D-13" value="se trouve dans" style="endArrow=open;html=1;endSize=12;startArrow=diamondThin;startSize=14;startFill=0;edgeStyle=orthogonalEdgeStyle;rounded=0;exitX=1;exitY=0.5;exitDx=0;exitDy=0;entryX=-0.008;entryY=0.384;entryDx=0;entryDy=0;entryPerimeter=0;" edge="1" parent="1" source="_aAZYnoRH1j6Abzu226s-28" target="_aAZYnoRH1j6Abzu226s-11">
          <mxGeometry x="0.0013" relative="1" as="geometry">
            <mxPoint x="1020" y="520" as="sourcePoint" />
            <mxPoint x="910" y="791" as="targetPoint" />
            <Array as="points">
              <mxPoint x="970" y="434" />
              <mxPoint x="970" y="440" />
              <mxPoint x="1030" y="440" />
              <mxPoint x="1030" y="424" />
              <mxPoint x="1090" y="424" />
              <mxPoint x="1090" y="372" />
            </Array>
            <mxPoint as="offset" />
          </mxGeometry>
        </mxCell>
        <mxCell id="5B8QcY3OEXfL6ncTWb6D-14" value="1..n" style="edgeLabel;resizable=0;html=1;align=left;verticalAlign=top;" connectable="0" vertex="1" parent="5B8QcY3OEXfL6ncTWb6D-13">
          <mxGeometry x="-1" relative="1" as="geometry" />
        </mxCell>
        <mxCell id="5B8QcY3OEXfL6ncTWb6D-15" value="1" style="edgeLabel;resizable=0;html=1;align=right;verticalAlign=top;" connectable="0" vertex="1" parent="5B8QcY3OEXfL6ncTWb6D-13">
          <mxGeometry x="1" relative="1" as="geometry" />
        </mxCell>
        <mxCell id="5B8QcY3OEXfL6ncTWb6D-16" value="est localisÃ© dans" style="endArrow=open;html=1;endSize=12;startArrow=diamondThin;startSize=14;startFill=0;edgeStyle=orthogonalEdgeStyle;rounded=0;exitX=1;exitY=0.5;exitDx=0;exitDy=0;entryX=0;entryY=0.5;entryDx=0;entryDy=0;" edge="1" parent="1" source="_aAZYnoRH1j6Abzu226s-19" target="_aAZYnoRH1j6Abzu226s-2">
          <mxGeometry x="0.4106" relative="1" as="geometry">
            <mxPoint x="1550" y="499" as="sourcePoint" />
            <mxPoint x="1730" y="437" as="targetPoint" />
            <Array as="points">
              <mxPoint x="1450" y="476" />
              <mxPoint x="1450" y="250" />
            </Array>
            <mxPoint as="offset" />
          </mxGeometry>
        </mxCell>
        <mxCell id="5B8QcY3OEXfL6ncTWb6D-17" value="1..n" style="edgeLabel;resizable=0;html=1;align=left;verticalAlign=top;" connectable="0" vertex="1" parent="5B8QcY3OEXfL6ncTWb6D-16">
          <mxGeometry x="-1" relative="1" as="geometry" />
        </mxCell>
        <mxCell id="5B8QcY3OEXfL6ncTWb6D-18" value="1" style="edgeLabel;resizable=0;html=1;align=right;verticalAlign=top;" connectable="0" vertex="1" parent="5B8QcY3OEXfL6ncTWb6D-16">
          <mxGeometry x="1" relative="1" as="geometry" />
        </mxCell>
      </root>
    </mxGraphModel>
  </diagram>
</mxfile>
